<?xml version="1.0" encoding="UTF-8"?>
<svg id="Capa_2" data-name="Capa 2" xmlns="http://www.w3.org/2000/svg" viewBox="0 0 451.15 144.22">
  <defs>
    <style>
      .cls-1 {
        fill: #211ac0;
      }

      .cls-2 {
        fill: #f25824;
      }
    </style>
  </defs>
  <g id="Capa_1-2" data-name="Capa 1">
    <g>
      <g>
        <path class="cls-1" d="M0,142.12V0h97.86v27.85H33.77v34.72h58.37v27.18h-58.37v52.37H0Z"/>
        <path class="cls-1" d="M149.91,0v142.12h-35.36V0h35.36Z"/>
        <path class="cls-1" d="M221.14,144.22c-10.94,0-20.41-2.22-28.42-6.68-8.01-4.45-14.16-10.75-18.46-18.89-4.29-8.14-6.44-17.77-6.44-28.9s2.15-20.3,6.44-28.47c4.29-8.17,10.36-14.55,18.22-19.12,7.85-4.58,17.03-6.87,27.52-6.87,7.5,0,14.39,1.19,20.65,3.58,6.26,2.38,11.7,5.88,16.31,10.49,4.61,4.61,8.17,10.24,10.68,16.88,2.51,6.65,3.77,14.26,3.77,22.84v8.49h-92.14v-19.46h76.4l-15.45,4.48c0-4.83-.76-8.98-2.29-12.45-1.53-3.46-3.75-6.12-6.68-7.96-2.93-1.84-6.55-2.77-10.87-2.77s-7.89.94-10.87,2.81c-2.99,1.88-5.26,4.5-6.82,7.87-1.56,3.37-2.34,7.38-2.34,12.02v14.02c0,5.21.87,9.62,2.62,13.21,1.75,3.59,4.24,6.29,7.49,8.11,3.24,1.81,7.03,2.72,11.35,2.72,3.05,0,5.82-.43,8.3-1.29,2.48-.86,4.59-2.1,6.34-3.72,1.75-1.62,3.07-3.61,3.96-5.96l29.57,3.82c-1.65,6.23-4.69,11.68-9.11,16.36-4.42,4.67-10,8.32-16.74,10.92-6.74,2.61-14.4,3.91-22.99,3.91Z"/>
        <path class="cls-1" d="M272.99,142.12l40.73-65.53-.19,22.89-38.44-62.67h35.39l7.82,14.5c2.86,5.28,5.47,10.57,7.82,15.88,2.35,5.31,4.74,10.51,7.15,15.59h-11.16c2.48-5.02,4.93-10.21,7.34-15.55,2.42-5.34,5.12-10.65,8.11-15.93l8.2-14.5h34.72l-39.39,62.76.19-22.8,40.73,65.34h-35.2l-9.73-17.17c-2.93-5.28-5.61-10.59-8.06-15.93-2.45-5.34-4.91-10.52-7.39-15.55h10.78c-2.42,5.02-4.8,10.21-7.15,15.55-2.35,5.34-4.96,10.65-7.82,15.93l-9.63,17.17h-34.81Z"/>
      </g>
      <rect class="cls-2" x="415.8" y="106.79" width="35.36" height="35.36"/>
    </g>
  </g>
</svg>